<svg width="36" height="36" viewBox="0 0 36 36" fill="none" xmlns="http://www.w3.org/2000/svg">
<path d="M18.033 13.5015C18.3835 13.5009 18.7232 13.6229 18.993 13.8465L27.993 21.3465C28.2994 21.6011 28.492 21.967 28.5286 22.3637C28.5651 22.7603 28.4426 23.1552 28.188 23.4615C27.9334 23.7679 27.5676 23.9605 27.1709 23.9971C26.7743 24.0336 26.3794 23.9111 26.073 23.6565L18.033 16.9365L9.99303 23.4165C9.8396 23.5411 9.66306 23.6342 9.47355 23.6903C9.28404 23.7465 9.0853 23.7646 8.88876 23.7437C8.69222 23.7228 8.50175 23.6633 8.32829 23.5685C8.15483 23.4737 8.00182 23.3456 7.87803 23.1915C7.74066 23.0373 7.63663 22.8564 7.57244 22.6601C7.50825 22.4637 7.48529 22.2563 7.50501 22.0507C7.52472 21.8451 7.58668 21.6458 7.68701 21.4653C7.78733 21.2847 7.92386 21.1269 8.08804 21.0015L17.088 13.7565C17.3657 13.5683 17.6984 13.4785 18.033 13.5015Z" fill="black"/>
</svg>
