<svg width="36" height="36" viewBox="0 0 36 36" fill="none" xmlns="http://www.w3.org/2000/svg">
<path d="M17.9999 23.9999C17.6494 24.0006 17.3098 23.8785 17.0399 23.6549L8.03993 16.1549C7.7336 15.9003 7.54096 15.5345 7.50439 15.1378C7.46782 14.7412 7.59032 14.3462 7.84493 14.0399C8.09953 13.7336 8.4654 13.541 8.86204 13.5044C9.25868 13.4678 9.6536 13.5903 9.95992 13.8449L17.9999 20.5649L26.0399 14.0849C26.1934 13.9603 26.3699 13.8673 26.5594 13.8111C26.7489 13.755 26.9477 13.7368 27.1442 13.7578C27.3407 13.7787 27.5312 13.8382 27.7047 13.933C27.8781 14.0277 28.0311 14.1558 28.1549 14.3099C28.2923 14.4642 28.3963 14.6451 28.4605 14.8414C28.5247 15.0377 28.5477 15.2452 28.528 15.4508C28.5082 15.6564 28.4463 15.8557 28.346 16.0362C28.2456 16.2167 28.1091 16.3746 27.9449 16.4999L18.9449 23.7449C18.6673 23.9332 18.3346 24.023 17.9999 23.9999Z" fill="black"/>
</svg>
