<svg width="103" height="58" viewBox="0 0 103 58" fill="none" xmlns="http://www.w3.org/2000/svg">
<path d="M15.066 35.6769C17.7069 36.8305 20.2983 38.1204 23.0084 39.092C24.9438 39.6951 26.928 40.1567 28.9511 40.4745C30.1948 40.7205 31.0931 40.1117 31.4371 38.9149C31.7811 37.7181 31.2998 36.8101 30 36.4667C27.3495 35.8004 24.6413 35.2787 22.0739 34.3876C20.1197 33.7099 18.3426 32.5574 16.489 31.6141L16.622 31.2414C16.9533 31.1556 17.2817 31.0442 17.6117 30.9941C24.1027 30.0253 30.5137 27.7168 36.8696 24.7896C37.8618 24.3311 38.4083 23.5201 38.3622 22.3288C38.3161 21.1376 37.4614 20.564 36.3516 20.9165C35.6661 21.1873 34.9863 21.4979 34.3147 21.847C26.413 25.3873 18.3107 27.3872 10.3517 27.7619C9.5755 27.8316 8.79605 28.2649 8.18183 28.9681C7.46581 29.8688 7.82303 30.8805 8.2805 31.7356C12.1637 38.8385 15.9483 46.0076 18.0747 54.4849C18.4814 56.1067 19.4676 56.5922 20.5123 55.8714C21.4583 55.2167 21.7144 54.1696 21.3609 52.7167C20.0249 47.1574 17.8996 42.1817 15.5486 37.3501C15.3176 36.879 15.0888 36.4028 14.8601 35.9267L15.066 35.6769Z" fill="black"/>
<path d="M57.59 37.6098C57.5163 36.807 57.6471 35.9418 57.3511 35.5456C57.1615 35.2966 56.9191 35.1127 56.6415 35.0072C56.3639 34.9016 56.058 34.8771 55.7461 34.9354C52.4097 36.3116 49.1757 36.088 45.9386 36.3365C44.2702 36.4572 42.5906 36.6579 40.9091 36.9063C40.5142 36.934 40.1149 37.1467 39.7969 37.4989C39.4788 37.8511 39.2674 38.3147 39.2078 38.7905C39.0888 39.2623 39.1197 39.7376 39.294 40.1185C39.4684 40.4994 39.773 40.757 40.1452 40.8383C40.6684 40.9597 41.2185 40.9833 41.7779 40.9084C45.0444 40.6242 48.309 40.3877 51.5807 39.9724C53.0442 39.7318 54.5112 39.3392 55.9647 38.799C56.4892 38.6337 56.9669 38.09 57.59 37.6098Z" fill="black"/>
<path d="M67.864 36.1452C68.4211 35.8421 68.9699 35.5066 69.508 35.1401C69.8806 34.8721 70.1541 34.3362 70.5337 34.0955C72.897 32.6037 75.2884 31.2091 77.6392 29.6815C79.1027 28.7372 80.5131 27.6239 81.9446 26.5806C82.9333 25.8597 83.3431 24.8676 82.9858 23.7589C82.6285 22.6501 81.7256 22.4802 80.7616 23.1331C78.8626 24.4151 77.0286 25.8711 75.1222 27.1378C73.4295 28.2664 71.7035 29.2949 69.9518 30.2188C68.6816 30.8775 67.5793 31.6884 66.9096 33.2283C66.3545 34.5028 66.6136 35.6657 67.864 36.1452Z" fill="black"/>
<path d="M89.9718 19.9785C90.283 19.7989 91.0341 19.6173 91.4877 19.0752C93.4807 16.6996 95.4363 14.259 97.3239 11.7706C98.7544 9.90766 100.131 7.98495 101.483 6.04512C102.228 4.98086 102.42 3.87561 101.637 3.00574C101.008 2.29994 99.9724 2.58794 99.0894 3.7131C95.8603 7.80803 92.6411 11.9052 89.4318 16.0048C88.2958 17.4563 88.3739 19.3411 89.9718 19.9785Z" fill="black"/>
</svg>
