<svg width="63" height="44" viewBox="0 0 63 44" fill="none" xmlns="http://www.w3.org/2000/svg">
<path d="M51.7602 34.8869C45.4378 30.7557 39.1672 26.4539 32.9924 22.1395C26.8175 17.8252 20.6805 13.5135 14.3865 9.5005C10.782 7.17081 7.17286 4.89894 3.55595 2.72328L5.06044 1.70768C5.8091 9.33265 6.84492 18.566 13.416 23.3734C15.388 24.7154 17.5063 25.8219 19.7299 26.6715C22.1865 27.7185 24.6634 28.7475 27.0665 29.752C31.9628 31.7415 36.8658 33.6478 41.7756 35.4705C47.2999 37.5114 52.9828 39.4668 58.6578 41.2862C58.4178 41.908 58.1967 42.5312 57.974 43.1737C57.4243 42.8769 56.9628 42.4365 56.636 41.8969C56.0195 41.0782 55.4815 40.2264 54.9436 39.3746C53.2636 36.6984 51.5883 33.9644 49.9099 31.269C48.0426 28.0953 46.213 24.9244 44.3646 21.752C42.8339 19.1059 41.3032 16.4596 39.7332 13.83L38.8932 12.492L38.5409 11.9246C38.6777 12.1087 38.5518 11.7899 38.5409 11.9246L38.3899 11.6814C37.056 9.64956 36.0001 7.46336 34.4826 5.59271C34.1201 5.13279 33.7164 4.70854 33.2765 4.32529L34.6056 4.07177C33.2534 6.27049 32.3576 8.72479 31.9743 11.2808C31.4153 13.9712 31.0418 16.7136 30.3524 19.3753C30.2622 19.6161 30.0838 19.8125 29.8552 19.9228C29.6266 20.0331 29.3659 20.0485 29.1287 19.9656C28.89 19.8804 28.6951 19.7022 28.5861 19.4697C28.4771 19.2371 28.4629 18.9689 28.5465 18.7233C29.2344 16.0809 29.5891 13.3372 30.167 10.6481C30.5953 7.91635 31.5689 5.29663 33.0273 2.95195C33.1782 2.74022 33.4032 2.59568 33.6546 2.54862C33.9061 2.50157 34.1645 2.55572 34.3752 2.69978C36.2567 4.53517 37.8201 6.68254 39.0008 9.05287C39.619 10.0846 40.2968 11.082 40.9355 12.0958C42.4094 14.5056 43.8237 16.9497 45.238 19.3939L50.7801 28.7171C52.4461 31.5665 54.1136 34.3968 55.7842 37.1885C55.9714 37.4536 56.1381 37.7367 56.3065 38.0004L56.2971 38.116L56.3836 38.2189L56.6338 38.6434L57.5161 39.9264C57.7363 40.252 57.9754 40.579 58.216 40.8867L58.51 41.2368L58.6138 41.3604C58.7711 41.5266 58.4739 41.2149 58.6138 41.3604L58.7269 41.3685C58.8589 41.378 58.4534 41.2328 58.5949 41.3591C58.8392 41.4485 59.0375 41.6336 59.1461 41.8737C59.2547 42.1139 59.2648 42.3895 59.1742 42.6398C59.0835 42.8902 58.8994 43.0947 58.6626 43.2085C58.4258 43.3223 58.1556 43.336 57.9113 43.2466C47.6741 39.9199 37.523 36.2315 27.5334 32.1866C25.0534 31.196 22.5763 30.1669 20.1009 29.1185C17.7449 28.2049 15.4625 27.1095 13.2732 25.8419C9.73472 23.5495 7.063 20.1076 5.68197 16.0624C4.21416 11.5776 3.31687 6.91262 3.01192 2.18089C2.98769 1.99199 3.01686 1.7993 3.09598 1.62538C3.17511 1.45147 3.30087 1.30357 3.45862 1.199C3.61637 1.09442 3.79956 1.03754 3.98663 1.03499C4.1737 1.03245 4.35694 1.08429 4.51486 1.18457C11.0099 5.05705 17.3496 9.2089 23.6061 13.4516C29.8626 17.6943 36.0498 21.8546 42.2246 26.169C45.7459 28.5895 49.2959 30.9669 52.8747 33.3012C53.9012 33.9749 52.8025 35.6004 51.7571 34.9254L51.7602 34.8869Z" fill="#222221"/>
<path d="M56.8835 40.9463C55.9378 40.6989 55.0939 40.1583 54.4673 39.3987C53.8081 38.754 53.0689 38.2 52.2681 37.7503C50.4604 36.6529 48.6527 35.5555 46.8622 34.2462C46.0034 33.6252 45.1774 32.9586 44.3876 32.2491C43.7179 31.5232 42.9843 30.8615 42.1959 30.2721C41.3314 29.7068 40.3758 29.3286 39.5724 28.7096C38.8093 28.0591 38.0869 27.3607 37.409 26.6185C35.957 25.2904 34.3825 24.108 32.7069 23.0873L27.139 19.2423L24.2826 17.276C23.3835 16.6695 22.4796 16.1208 21.5836 15.4758C20.1426 14.1321 18.6228 12.8788 17.0322 11.7229C15.0017 10.5301 13.1189 9.09555 11.423 7.44897C10.7041 6.72959 9.87502 6.1343 8.96755 5.68565C7.94805 5.34764 7.01614 4.78533 6.23715 4.03812C5.40217 3.10703 6.87196 1.81782 7.70695 2.74891C8.30652 3.26953 9.00333 3.66171 9.75664 3.90243C10.6537 4.3076 11.4799 4.85693 12.2042 5.52974C13.6992 6.96129 15.2903 8.28494 16.9662 9.49132C17.7758 10.0333 18.6543 10.4254 19.4199 11.0417C20.1856 11.658 20.8649 12.4036 21.5835 13.1328C22.3501 13.8109 23.1774 14.4145 24.0548 14.936C24.9382 15.5026 25.8561 16.1105 26.6799 16.7116C28.4735 17.9823 30.4008 19.2433 32.2495 20.5373L34.8904 22.3526C35.7361 22.9166 36.5834 23.4612 37.3663 24.0981C38.6888 25.4567 40.1162 26.7049 41.6349 27.8308C42.5392 28.2719 43.392 28.8134 44.1782 29.4456C44.9188 30.1376 45.5996 30.864 46.3794 31.5394C48.1871 33.0429 50.114 34.3918 52.1409 35.5725C53.1225 36.1078 54.062 36.7188 54.9515 37.4001C55.343 37.7185 55.692 38.092 56.0615 38.4476C56.3001 38.742 56.6075 38.9703 56.956 39.1119C57.1702 39.1721 57.3564 39.3064 57.483 39.4919C57.6095 39.6775 57.6686 39.9029 57.6503 40.1297C57.6319 40.3566 57.5373 40.5708 57.3823 40.7363C57.2274 40.9017 57.0217 41.008 56.8003 41.0372L56.8835 40.9463Z" fill="#222221"/>
</svg>
