<svg width="120" height="69" viewBox="0 0 120 69" fill="none" xmlns="http://www.w3.org/2000/svg">
<path d="M83.4558 28.2873C83.4775 31.0054 83.7348 33.6309 83.4718 36.2049C82.6998 43.7898 79.3124 50.0399 73.5189 54.8738C70.3438 57.5213 66.6965 58.5979 62.6208 57.4012C60.3926 56.7493 58.6142 55.3698 57.0928 53.6265C50.7934 46.3924 51.6641 34.3669 58.9272 28.2231C61.7097 25.8538 65.0912 24.3258 68.6872 23.813C71.5315 23.3934 74.4547 23.55 77.3466 23.458C77.6196 23.4499 77.8936 23.4937 78.343 23.5231C77.8636 22.4752 77.463 21.5275 77.0007 20.6148C72.0789 10.819 64.0672 5.44127 53.5014 3.80718C47.3214 2.89069 41.0179 3.42861 35.0772 5.37948C26.3744 8.07819 18.2199 12.3419 11.0009 17.9681C8.23021 20.0524 5.88639 22.666 4.10063 25.6626C3.75381 26.3091 3.50242 27.004 3.35451 27.7249C3.14481 28.6283 2.63659 29.1315 1.75072 29.1384C0.864846 29.1454 0.154352 28.662 0.106988 27.7851C0.0670148 26.969 0.227551 26.1559 0.574115 25.419C2.59854 21.2254 5.69268 17.8978 9.32947 15.1507C19.3504 7.58675 30.3026 2.08229 42.842 0.471184C49.854 -0.428575 56.7279 0.336793 63.2929 3.18438C72.3237 7.10601 78.1946 14.0438 81.6649 23.2256C81.773 23.5922 81.9723 23.9243 82.2435 24.1899C82.5148 24.4555 82.8488 24.6454 83.2133 24.7415C87.8916 26.2414 91.9269 28.9019 95.6668 32.0665C103.599 38.7845 109.659 47.0498 114.773 56.101C114.976 56.4604 115.183 56.82 115.4 57.1716C115.438 57.2347 115.521 57.2704 115.753 57.4456C115.689 55.4082 115.608 53.4995 115.569 51.5936C115.536 49.8869 115.518 48.1857 115.557 46.4794C115.583 45.1833 116.244 44.4739 117.276 44.5154C118.218 44.5554 118.728 45.3242 118.77 46.5684C118.972 52.5862 119.201 58.6056 119.416 64.6284C119.449 65.2495 119.45 65.8719 119.419 66.4931C119.293 68.5051 117.811 69.3945 116.068 68.4067C114.203 67.3611 112.404 66.1959 110.684 64.9182C107.372 62.4088 104.199 59.7095 100.872 57.2208C99.5175 56.2108 97.8732 55.6144 96.4453 54.6904C95.9075 54.3116 95.5334 53.7373 95.4004 53.0864C95.3689 52.8975 95.3801 52.7039 95.4332 52.5201C95.4863 52.3364 95.58 52.1674 95.707 52.026C95.834 51.8846 95.9911 51.7745 96.1663 51.7041C96.3415 51.6337 96.5302 51.6047 96.7181 51.6195C97.6074 51.5963 98.487 51.8135 99.267 52.2491C101.815 53.9774 104.288 55.822 106.738 57.691C109.481 59.7825 112.169 61.9395 115.154 64.2978C115.15 64.0187 115.116 63.741 115.053 63.4692C110.404 54.5435 105.235 45.9817 98.1371 38.7906C94.1778 34.7767 89.9352 31.1423 84.75 28.8305C84.3071 28.6285 83.8499 28.4515 83.4558 28.2873ZM80.5907 34.2169C80.3874 32.6332 80.1355 30.3283 79.7718 28.042C79.7093 27.8066 79.592 27.5897 79.4299 27.4098C79.2678 27.2298 79.0657 27.0919 78.8404 27.0078C74.2949 25.9819 69.5504 26.3963 65.2462 28.1952C56.3268 31.9594 53.317 41.9762 58.5907 50.229C61.6239 54.961 66.4746 56.018 70.9474 52.6984C76.8263 48.3373 79.5714 42.1489 80.5907 34.2169Z" fill="black"/>
</svg>
