<svg width="119" height="79" viewBox="0 0 119 79" fill="none" xmlns="http://www.w3.org/2000/svg">
<path d="M27.9268 55.9614C32.5041 57.8129 37.5025 55.7259 41.8644 54.0703C44.293 53.1435 46.7712 52.362 49.2863 51.7298C52.2617 51.0223 55.2659 50.4613 58.27 49.9003C61.2741 49.3394 64.4049 48.8125 67.459 48.1492C70.5132 47.4859 73.6154 46.8123 76.7156 46.2308C82.868 45.0781 89.049 44.0719 95.188 42.7999C96.9179 42.4299 98.6171 42.0055 100.341 41.6571C102.001 41.3746 103.675 41.1969 105.353 41.1249C106.146 41.0812 106.935 40.9672 107.71 40.784C108.156 40.6351 108.584 40.4309 108.982 40.1759C109.517 39.8202 110.127 39.5991 110.76 39.5311C111.393 39.463 112.031 39.55 112.62 39.7848C112.9 39.8712 113.136 40.0624 113.281 40.3203C113.426 40.5782 113.47 40.8836 113.403 41.1752C113.32 41.4642 113.13 41.7102 112.874 41.8618C112.618 42.0134 112.316 42.0586 112.03 41.988C104.109 40.1897 96.0742 38.9858 88.1628 37.2364C84.2493 36.373 80.4284 35.164 76.4918 34.387C72.5552 33.61 68.9448 33.2214 65.1539 32.8307C61.3629 32.44 57.5393 32.0869 53.7698 31.4473C51.8639 31.1218 49.9599 30.7042 48.1003 30.2059C46.3189 29.6825 44.5021 29.2885 42.6634 29.0269C39.0551 28.5462 35.377 28.5793 31.7299 28.4124C28.624 28.2317 25.5454 27.7479 22.5365 26.9676C20.3748 26.3465 18.1809 25.8436 15.9642 25.4612C14.9039 25.2732 13.8277 25.1863 12.7495 25.2018L12.0308 25.2638L11.7772 25.1959L11.4678 25.2519C11.2613 25.2906 11.0577 25.3444 10.8584 25.4127L10.6336 25.4914C10.5692 25.5131 10.5077 25.5433 10.4509 25.5814C10.3575 25.6276 10.2674 25.6808 10.1817 25.7407C10.0376 25.8587 9.90949 25.9957 9.80074 26.148L10.0959 25.0464C10.7501 27.0526 12.0861 28.7483 13.8649 29.8299C15.6851 31.151 17.3683 32.6568 18.8891 34.3246C20.249 36.0954 21.4728 37.9712 22.5497 39.9356C24.1304 42.489 26.2419 44.5828 27.7746 47.1465C28.3561 48.2532 28.8014 49.4299 29.1007 50.6503C29.2111 51.1623 29.4257 51.6439 29.7303 52.0644C30.035 52.4849 30.423 52.835 30.8698 53.0922C32.1354 53.7786 30.9978 55.7426 29.7206 55.0994C28.9027 54.5538 28.206 53.8408 27.6738 53.0051C27.1417 52.1694 26.7857 51.2288 26.6281 50.2424C25.7954 48.1624 24.582 46.2662 23.0521 44.654C21.5846 42.7481 20.2541 40.736 19.071 38.6331C18.1557 37.0425 17.0166 35.5986 15.6896 34.347C14.2421 32.9868 12.702 31.9723 11.1642 30.6111C9.57637 29.42 8.43745 27.7111 7.93334 25.7633C7.66226 24.0701 10.1517 23.2324 11.4202 23.0629C13.1278 22.8535 14.8539 22.91 16.5392 23.2307C19.7382 23.7174 22.9076 24.8214 25.9662 25.4095C31.1881 26.4614 36.5576 26.1176 41.8434 26.6773C43.2114 26.8124 44.5621 27.0122 45.9166 27.2825C47.2711 27.5529 48.5581 27.9903 49.8683 28.3414C52.5509 28.9908 55.2686 29.4872 58.0087 29.8281C63.4557 30.5468 69.0492 30.888 74.3923 31.7409C77.1637 32.2176 79.9081 32.837 82.615 33.5969C85.4678 34.3613 88.2995 35.12 91.143 35.581C96.8721 36.7688 102.638 37.735 108.373 38.9012L112.657 39.8177L112.078 41.9777C111.728 41.7784 111.317 41.7177 110.923 41.8072C110.553 41.9489 110.195 42.1242 109.854 42.331C108.703 42.9186 107.447 43.26 106.166 43.3337C104.744 43.4851 103.293 43.4899 101.853 43.7061C100.414 43.9223 98.7779 44.3637 97.2383 44.7846C91.1357 46.0895 84.9759 47.1014 78.8505 48.2382C72.725 49.375 66.5666 50.8038 60.3777 51.9236C54.6366 52.7547 48.9723 54.0954 43.4497 55.9304C38.4188 57.8004 32.5917 60.36 27.2979 58.2238C27.0183 58.1374 26.7822 57.946 26.637 57.6881C26.4919 57.4302 26.4484 57.125 26.5153 56.8334C26.5936 56.5413 26.7822 56.2914 27.0397 56.139C27.2972 55.9865 27.6024 55.944 27.8883 56.0206L27.9268 55.9614Z" fill="#222221"/>
<path d="M113.168 40.6522C110.441 39.8666 107.827 38.7627 105.422 37.3802C103.989 36.624 102.464 36.0027 100.885 35.5311C99.2242 35.0861 97.535 34.6335 95.8744 34.1885C89.502 32.3168 84.0816 28.4952 78.3813 25.49C75.6288 24.0101 72.7003 22.784 69.6623 21.8399C66.4351 20.8075 63.2692 19.6145 60.1856 18.2686C57.1651 16.9432 54.191 15.5597 51.1361 14.2485C48.0811 12.9373 45.082 11.8757 42.0147 10.7254C35.079 8.09286 28.397 4.285 20.8189 3.59161L22.1656 2.80301C20.9945 5.91414 23.5508 9.08561 24.3352 12.2281C25.1196 15.3706 25.2441 18.5709 28.1086 21.0509C29.4377 22.275 27.3754 23.7868 26.1322 22.5857C22.8918 19.6765 22.6717 16.1457 21.6883 12.7153C21.1709 10.9815 20.2689 9.30879 19.6545 7.47863C18.9118 5.62822 18.8375 3.71798 19.4405 1.97888C19.5091 1.73525 19.6769 1.52568 19.9199 1.38012C20.1628 1.23457 20.4683 1.16047 20.793 1.16837C27.7118 1.80242 33.9348 4.68971 40.2047 7.4019C43.2941 8.69888 46.5171 9.72669 49.6182 10.9799C52.7194 12.2331 55.6707 13.587 58.6853 14.9343C61.6491 16.3067 64.6842 17.5584 67.7767 18.684C69.3514 19.1059 70.9196 19.6668 72.4936 20.2059C74.04 20.7572 75.5535 21.3821 77.025 22.0768C79.9419 23.4449 82.7312 25.0602 85.5146 26.6975C88.2572 28.361 91.1415 29.8559 94.1371 31.1661C97.7419 32.6012 101.638 33.1761 105.203 34.6472C106.684 35.3023 108.027 36.1313 109.463 36.8443C110.867 37.5431 112.359 38.1006 113.898 38.5019C114.215 38.6413 114.476 38.8577 114.636 39.1145C114.796 39.3712 114.846 39.6525 114.777 39.9104C114.708 40.1683 114.524 40.3868 114.257 40.529C113.99 40.6713 113.656 40.7284 113.311 40.6906L113.168 40.6522Z" fill="#222221"/>
</svg>
