<svg width="67" height="47" viewBox="0 0 67 47" fill="none" xmlns="http://www.w3.org/2000/svg">
<path d="M9.12312 35.0146C16.5371 31.2947 23.916 27.3821 31.1918 23.444C38.4676 19.5058 45.7019 15.5659 53.0702 11.9714C57.2939 9.8785 61.5154 7.84929 65.7334 5.92604L64.2183 4.63027C62.4509 12.8574 60.1696 22.8038 52.3999 27.2306C50.0807 28.4492 47.6313 29.3926 45.099 30.0424C42.2879 30.8787 39.4567 31.6929 36.7092 32.4894C31.1183 34.0501 25.5305 35.519 19.9457 36.896C13.6631 38.4344 7.21809 39.8599 0.798738 41.1377C0.983055 41.8462 1.14669 42.5539 1.30956 43.2827C1.94646 43.0273 2.50499 42.6043 2.92881 42.0562C3.70359 41.2397 4.3968 40.3772 5.09001 39.5148C7.25681 36.8039 9.42572 34.0294 11.5932 31.2973C14.0265 28.0669 16.4181 24.8348 18.8306 21.6035C20.8308 18.9068 22.831 16.21 24.8719 13.5363L25.9553 12.1809L26.4105 11.6057C26.2382 11.7895 26.4154 11.4573 26.4105 11.6057L26.6056 11.3591C28.3144 9.30824 29.7391 7.05425 31.6282 5.20214C32.0811 4.74545 32.5745 4.33283 33.1023 3.96946L31.6836 3.52714C32.885 6.09495 33.5567 8.88479 33.6563 11.7217C33.9309 14.7272 33.9966 17.7663 34.4171 20.7567C34.4855 21.0307 34.6558 21.2673 34.8914 21.4161C35.1271 21.5649 35.4097 21.6142 35.6788 21.5534C35.9499 21.4902 36.1849 21.32 36.3328 21.0798C36.4807 20.8397 36.5296 20.5488 36.469 20.2703C36.0477 17.3011 36.0027 14.2629 35.7073 11.2566C35.5805 8.22228 34.8446 5.24225 33.5454 2.50192C33.4071 2.25206 33.1797 2.0663 32.9111 1.98361C32.6426 1.90091 32.3539 1.92778 32.106 2.05872C29.8241 3.827 27.8504 5.97534 26.2666 8.4147C25.4634 9.46353 24.5994 10.4673 23.7761 11.4941C21.8674 13.9398 20.0194 16.4307 18.1714 18.9215L10.9617 28.4042C8.78859 31.3059 6.61618 34.1864 4.44517 37.0245C4.20789 37.2905 3.99065 37.5786 3.77411 37.8454L3.76991 37.9726L3.66272 38.0742L3.33681 38.5062L2.21411 39.7963C1.93323 40.1241 1.63155 40.4511 1.33063 40.7569L0.966123 41.1023L0.837465 41.2243C0.64517 41.386 1.00832 41.0829 0.837465 41.2243L0.713009 41.219C0.567806 41.2128 1.02838 41.105 0.858228 41.2252C0.580553 41.2922 0.341132 41.4695 0.19268 41.718C0.0442269 41.9666 -0.00119382 42.2661 0.0665376 42.5505C0.134269 42.835 0.309618 43.0811 0.553858 43.2348C0.798097 43.3885 1.09125 43.4372 1.36893 43.3701C12.9546 41.016 24.4914 38.2565 35.8962 35.0879C38.726 34.3161 41.5573 33.5019 44.3892 32.6664C47.0739 31.9631 49.701 31.0524 52.248 29.9421C56.395 27.8817 59.7395 24.4588 61.7507 20.2168C63.9114 15.5059 65.4721 10.5273 66.3946 5.402C66.4446 5.19889 66.4368 4.98498 66.3722 4.78534C66.3075 4.5857 66.1887 4.40863 66.0296 4.27486C65.8705 4.14108 65.6777 4.05618 65.4739 4.03008C65.2701 4.00398 65.0636 4.03771 64.8788 4.12745C57.3087 7.54353 49.8732 11.2838 42.5172 15.1336C35.1612 18.9834 27.891 22.752 20.6152 26.6901C16.471 28.8925 12.3009 31.0442 8.10467 33.1453C6.90058 33.7525 7.89689 35.6632 9.12172 35.057L9.12312 35.0146Z" fill="#222221"/>
</svg>
