<svg width="111" height="84" viewBox="0 0 111 84" fill="none" xmlns="http://www.w3.org/2000/svg">
<path d="M54.0823 66.4487C51.9291 64.7896 49.7035 63.3733 47.8393 61.5789C42.3443 56.294 39.5129 49.7731 39.2801 42.2314C39.1538 38.0993 40.5554 34.5641 44.0108 32.0935C45.898 30.7413 48.0806 30.1921 50.3912 30.0694C59.9707 29.5712 68.9007 37.6722 69.2584 47.1785C69.4078 50.8301 68.5255 54.4343 66.7116 57.5815C65.288 60.0793 63.3622 62.284 61.6513 64.6174C61.4894 64.8373 61.2859 65.0259 60.9856 65.3616C62.1062 65.6304 63.0992 65.8995 64.1028 66.0984C74.8495 68.2644 84.0235 65.2734 91.8253 57.9634C96.3578 53.6634 99.8213 48.3694 101.949 42.4896C105.191 33.9743 106.863 24.9256 106.885 15.7731C106.953 12.3067 106.341 8.84986 105.083 5.59614C104.788 4.92446 104.396 4.29807 103.92 3.73705C103.338 3.01489 103.255 2.30451 103.796 1.60284C104.337 0.90116 105.155 0.639918 105.875 1.1434C106.542 1.61514 107.083 2.24294 107.45 2.97017C109.503 7.14986 110.214 11.6377 110.134 16.1947C109.909 28.7479 107.489 40.7642 101.025 51.6291C97.409 57.704 92.5677 62.6434 86.2776 66.0557C77.6215 70.7467 68.5395 71.0903 59.1713 68.1602C58.8161 68.0192 58.4317 67.9713 58.0554 68.0211C57.6791 68.0709 57.3235 68.2167 57.0232 68.4444C52.9575 71.2024 48.3746 72.7385 43.5771 73.7312C33.3971 75.8331 23.1532 75.5072 12.8747 73.9509C12.4665 73.8893 12.0555 73.8308 11.6453 73.7843C11.5718 73.7758 11.4926 73.8191 11.2117 73.8934C12.8553 75.0992 14.4077 76.2127 15.9318 77.3577C17.2962 78.3835 18.646 79.4191 19.9655 80.5016C20.97 81.321 21.1206 82.2793 20.4516 83.066C19.8389 83.7833 18.9194 83.7105 17.9143 82.9758C13.0519 79.4247 8.17241 75.8925 3.29821 72.348C2.789 71.9908 2.29847 71.6077 1.82862 71.2003C0.322231 69.8606 0.535723 68.1457 2.38835 67.3826C4.36191 66.5586 6.38813 65.8614 8.4547 65.2952C12.4729 64.2349 16.5545 63.4015 20.5651 62.3173C22.1954 61.8739 23.6788 60.9473 25.2867 60.3929C25.9166 60.2032 26.5994 60.2628 27.1938 60.5595C27.362 60.6512 27.5075 60.7794 27.6194 60.9345C27.7313 61.0896 27.8066 61.2675 27.8396 61.4547C27.8726 61.6419 27.8624 61.8334 27.8098 62.0148C27.7572 62.1962 27.6636 62.3626 27.5361 62.5014C27.006 63.2158 26.2925 63.7743 25.4687 64.1197C22.5366 65.06 19.5596 65.8694 16.5774 66.6456C13.2396 67.5151 9.8842 68.3006 6.18655 69.1969C6.40911 69.3653 6.64875 69.5098 6.9014 69.628C16.7945 71.4726 26.7222 72.6829 36.7604 71.5294C42.3618 70.8878 47.8392 69.789 52.8566 67.1326C53.2887 66.9085 53.7099 66.6577 54.0823 66.4487ZM51.1811 60.5367C52.5531 61.3532 54.5229 62.5763 56.547 63.6998C56.771 63.7958 57.014 63.8372 57.2556 63.8206C57.4973 63.804 57.7305 63.7298 57.9357 63.6043C61.5463 60.6586 64.1457 56.6681 65.3838 52.1703C67.9206 42.8275 61.891 34.2811 52.1421 33.3436C46.5465 32.8134 42.7232 35.9803 42.5783 41.5486C42.3863 48.8659 45.5652 54.843 51.1811 60.5367Z" fill="black"/>
</svg>
