<svg width="24" height="24" viewBox="0 0 24 24" fill="none" xmlns="http://www.w3.org/2000/svg">
<path d="M2.5 7.60156C2.5 4.78939 4.7877 2.5 7.59844 2.5H15.5984C18.4106 2.5 20.7 4.7877 20.7 7.59844V15.5984C20.7 18.4106 18.4123 20.7 15.6016 20.7H7.60156C4.78939 20.7 2.5 18.4123 2.5 15.6016V7.60156ZM18.5 6C18.5 5.28226 17.9177 4.7 17.2 4.7C16.4823 4.7 15.9 5.28226 15.9 6C15.9 6.71774 16.4823 7.3 17.2 7.3C17.9177 7.3 18.5 6.71774 18.5 6ZM16.9 11.6C16.9 8.67666 14.5233 6.3 11.6 6.3C8.67666 6.3 6.3 8.67666 6.3 11.6C6.3 14.5233 8.67666 16.9 11.6 16.9C14.5233 16.9 16.9 14.5233 16.9 11.6ZM9.69081 9.69081C10.1972 9.18446 10.8839 8.9 11.6 8.9C12.3161 8.9 13.0028 9.18446 13.5092 9.69081C14.0155 10.1972 14.3 10.8839 14.3 11.6C14.3 12.3161 14.0155 13.0028 13.5092 13.5092C13.0028 14.0155 12.3161 14.3 11.6 14.3C10.8839 14.3 10.1972 14.0155 9.69081 13.5092C9.18446 13.0028 8.9 12.3161 8.9 11.6C8.9 10.8839 9.18446 10.1972 9.69081 9.69081Z" fill="#020202" stroke="black"/>
</svg>
