<svg width="154" height="104" viewBox="0 0 154 104" fill="none" xmlns="http://www.w3.org/2000/svg">
<path d="M123.532 53.6456C120.707 56.0217 117.988 58.5447 115.015 60.7258C112.861 62.1735 110.6 63.4676 108.242 64.6017C106.809 65.3604 105.506 64.9549 104.677 63.6315C103.848 62.3081 104.125 61.0291 105.592 60.1317C108.596 58.3427 111.72 56.7076 114.546 54.677C116.698 53.132 118.471 51.077 120.408 49.2474L120.119 48.8447C119.685 48.8634 119.247 48.8499 118.827 48.9114C110.581 50.1399 101.975 49.7149 93.2237 48.5194C91.8571 48.3309 90.9135 47.55 90.5625 46.0889C90.2114 44.6278 91.0575 43.616 92.5313 43.6325C93.4597 43.7071 94.3948 43.8319 95.3331 44.0065C106.179 45.3728 116.742 44.7977 126.575 42.3055C127.545 42.1027 128.644 42.3393 129.633 42.9643C130.814 43.7912 130.724 45.1498 130.459 46.3558C128.152 56.4038 125.988 66.4954 126.294 77.5592C126.352 79.6758 125.316 80.6293 123.795 80.1423C122.418 79.6989 121.748 78.5244 121.682 76.6322C121.41 69.3984 122.301 62.5799 123.516 55.8525C123.637 55.196 123.753 54.5341 123.869 53.8721L123.532 53.6456Z" fill="black"/>
<path d="M72.3407 71.7328C72.1561 70.7324 71.7009 69.732 71.9263 69.142C72.0724 68.7701 72.3051 68.4573 72.6076 68.2266C72.91 67.9959 73.2746 67.8529 73.6748 67.8082C78.2136 68.2413 82.0807 66.773 86.1128 65.8758C88.1884 65.4045 90.3051 65.026 92.4404 64.7046C92.9315 64.592 93.4911 64.702 93.9993 65.0113C94.5075 65.3205 94.9238 65.8042 95.159 66.3589C95.4655 66.8869 95.5903 67.4744 95.5079 68.0007C95.4256 68.5269 95.1422 68.952 94.7161 69.1883C94.1197 69.5292 93.4569 69.7615 92.7492 69.8777C88.669 70.7425 84.6074 71.6644 80.476 72.3722C78.6092 72.6223 76.6862 72.6894 74.7292 72.5727C74.0332 72.5665 73.2647 72.0843 72.3407 71.7328Z" fill="black"/>
<path d="M59.3119 73.7611C58.5289 73.5999 57.7451 73.3963 56.9637 73.1513C56.4177 72.9643 55.901 72.416 55.3559 72.2647C51.9641 71.3312 48.5714 70.5259 45.1827 69.5444C43.0752 68.9414 40.9749 68.114 38.8726 67.3793C37.4205 66.8713 36.5817 65.8204 36.6384 64.3441C36.695 62.8677 37.7379 62.3275 39.1365 62.7621C41.8904 63.6132 44.6245 64.6993 47.3822 65.529C49.832 66.2705 52.2882 66.8782 54.7401 67.3497C56.5141 67.678 58.1354 68.253 59.4785 69.8718C60.5911 71.2113 60.6727 72.717 59.3119 73.7611Z" fill="black"/>
<path d="M26.8272 62.3475C26.3864 62.245 25.4085 62.3029 24.67 61.8137C21.4276 59.6717 18.2087 57.4371 15.0563 55.1193C12.6752 53.3906 10.3389 51.5696 8.02756 49.7184C6.75579 48.7039 6.14333 47.4353 6.80045 46.0911C7.32667 45.0024 8.68755 44.9683 10.1489 46.0054C15.4863 49.774 20.8124 53.549 26.1272 57.3305C28.0087 58.6695 28.5577 60.9833 26.8272 62.3475Z" fill="black"/>
</svg>
