<svg width="24" height="24" viewBox="0 0 24 24" fill="none" xmlns="http://www.w3.org/2000/svg">
<path d="M22.1458 3.14499C21.7858 2.83971 21.2204 2.79603 20.6358 3.03075H20.6348C20.0199 3.27747 3.22953 10.4794 2.54601 10.7736C2.42169 10.8168 1.33593 11.2219 1.44777 12.1243C1.54761 12.9379 2.42025 13.2749 2.52681 13.3138L6.79545 14.7754C7.07865 15.7181 8.12265 19.1962 8.35353 19.9392C8.49753 20.4024 8.73225 21.0111 9.14361 21.1363C9.50457 21.2755 9.86361 21.1483 10.0959 20.9659L12.7057 18.5453L16.9186 21.8309L17.019 21.8909C17.305 22.0176 17.5791 22.081 17.8407 22.081C18.0428 22.081 18.2367 22.0431 18.422 21.9672C19.0532 21.708 19.3057 21.1066 19.3321 21.0384L22.479 4.68147C22.671 3.80787 22.4041 3.36339 22.1458 3.14499ZM10.5601 15.36L9.12009 19.2L7.68009 14.4L18.7201 6.24003L10.5601 15.36Z" fill="#020202"/>
</svg>
